<?xml version="1.0" encoding="utf-8"?>
<!-- Generator: Adobe Illustrator 17.1.0, SVG Export Plug-In . SVG Version: 6.00 Build 0)  -->
<!DOCTYPE svg PUBLIC "-//W3C//DTD SVG 1.1//EN" "http://www.w3.org/Graphics/SVG/1.1/DTD/svg11.dtd">
<svg version="1.1" id="Layer_1" xmlns="http://www.w3.org/2000/svg" xmlns:xlink="http://www.w3.org/1999/xlink" x="0px" y="0px"
	 viewBox="0 0 50 50" enable-background="new 0 0 50 50" xml:space="preserve">
<rect x="19.8" y="39.4" fill="#7A7A7A" width="10.6" height="3.4"/>
<polygon fill="#7A7A7A" points="23.1,50 27,50 30.3,46.5 19.8,46.5 "/>
<path fill="#68217A" d="M41.2,14.7L41.2,14.7v-0.3c0-7.7-6.6-14.1-14.7-14.2c-0.2-0.3-4.8,0.1-4.8,0.1l0,0c-7.3,0.9-13,7-13,14.1
	c0,0.2-0.8,5.8,4.9,10.5c2.6,2.3,5.3,8.5,5.7,10.3l0.3,0.6h10.6l0.3-0.6c0.4-1.8,3.2-8,5.7-10.2C41.9,20.2,41.2,14.9,41.2,14.7z"/>
<path fill="#FFFFFF" d="M30.4,18.1l-1.7,10.6h-2V18.2l0.1-0.2c3.8,0,3.3-3.5,3.3-3.5H19.8v0.3c0,0.8,0.3,3.3,3.5,3.3v10.6h-2
	l-0.5-2.5l-1.3-8.1c-2.3,0-3-1.5-3.3-2.6c0-0.4,0-0.9,0-1.4c0-2.8,3.2-3.1,3.2-3.1h11c0,0,3.5,0.4,3.5,3.5
	C33.8,14.5,33.9,18.1,30.4,18.1z"/>
<path opacity="0.15" fill="#FFFFFF" enable-background="new    " d="M41.2,16.4c0.1-1,0-1.7,0-1.8l0,0v-0.3
	c0-7.7-6.6-14.1-14.7-14.2c-0.2-0.3-4.8,0.1-4.8,0.1l0,0c-7.3,0.9-13,7-13,14.1c0,0.1-0.1,0.9,0,2.1H41.2z"/>
</svg>
